<svg width="25" height="29" viewBox="0 0 25 29" fill="none" xmlns="http://www.w3.org/2000/svg">
<path d="M7 15.875H18C20.3522 15.875 22.3321 17.6355 22.6069 19.9718L23.5 27.5625M7 15.875C4.64776 15.875 2.66787 17.6355 2.39303 19.9718L1.5 27.5625M7 15.875V22.75C7 25.3427 7 26.639 7.80546 27.4445C8.61091 28.25 9.9073 28.25 12.5 28.25C15.0927 28.25 16.389 28.25 17.1945 27.4445C18 26.639 18 25.3427 18 22.75V21.375" stroke="black" stroke-width="1.5" stroke-linecap="round"/>
<path d="M12.5 11.75C15.5376 11.75 18 9.28757 18 6.25C18 3.21243 15.5376 0.75 12.5 0.75C9.46243 0.75 7 3.21243 7 6.25C7 9.28757 9.46243 11.75 12.5 11.75Z" stroke="black" stroke-width="1.5"/>
</svg>
